<svg xmlns="http://www.w3.org/2000/svg" xmlns:xlink="http://www.w3.org/1999/xlink" width="480" zoomAndPan="magnify" viewBox="0 0 360 95.999999" height="128" preserveAspectRatio="xMidYMid meet" version="1.0"><defs><g/></defs><g fill="#000000" fill-opacity="1"><g transform="translate(0.000001875, 66.14861)"><g><path d="M 18.46875 -34.15625 C 30.414062 -34.15625 36.390625 -28.460938 36.390625 -17.078125 C 36.390625 -5.691406 30.414062 0 18.46875 0 L 3.671875 0 L 3.671875 -34.15625 Z M 14.640625 -8.1875 L 18.265625 -8.1875 C 22.867188 -8.1875 25.171875 -10.65625 25.171875 -15.59375 L 25.171875 -18.5625 C 25.171875 -23.5 22.867188 -25.96875 18.265625 -25.96875 L 14.640625 -25.96875 Z M 14.640625 -8.1875 "/></g></g></g><g fill="#000000" fill-opacity="1"><g transform="translate(38.61129, 66.14861)"><g><path d="M 15.9375 -26.8125 C 19.9375 -26.8125 23.191406 -26.140625 25.703125 -24.796875 C 28.222656 -23.453125 29.484375 -21.273438 29.484375 -18.265625 L 29.484375 -8.046875 C 29.484375 -7.484375 29.613281 -7.019531 29.875 -6.65625 C 30.144531 -6.289062 30.546875 -6.109375 31.078125 -6.109375 L 32.859375 -6.109375 L 32.859375 -0.390625 C 32.765625 -0.328125 32.507812 -0.21875 32.09375 -0.0625 C 31.675781 0.0820312 31.085938 0.226562 30.328125 0.375 C 29.566406 0.519531 28.691406 0.59375 27.703125 0.59375 C 25.785156 0.59375 24.203125 0.304688 22.953125 -0.265625 C 21.710938 -0.847656 20.863281 -1.65625 20.40625 -2.6875 C 19.144531 -1.6875 17.734375 -0.890625 16.171875 -0.296875 C 14.617188 0.296875 12.800781 0.59375 10.71875 0.59375 C 4.5625 0.59375 1.484375 -1.851562 1.484375 -6.75 C 1.484375 -9.300781 2.171875 -11.242188 3.546875 -12.578125 C 4.921875 -13.921875 6.898438 -14.835938 9.484375 -15.328125 C 12.066406 -15.828125 15.441406 -16.078125 19.609375 -16.078125 L 19.609375 -17.375 C 19.609375 -18.394531 19.25 -19.171875 18.53125 -19.703125 C 17.820312 -20.234375 16.90625 -20.5 15.78125 -20.5 C 14.757812 -20.5 13.875 -20.316406 13.125 -19.953125 C 12.382812 -19.585938 12.015625 -19.007812 12.015625 -18.21875 L 12.015625 -18.015625 L 2.28125 -18.015625 C 2.25 -18.179688 2.234375 -18.414062 2.234375 -18.71875 C 2.234375 -21.195312 3.414062 -23.164062 5.78125 -24.625 C 8.144531 -26.082031 11.53125 -26.8125 15.9375 -26.8125 Z M 19.609375 -11.421875 C 16.796875 -11.421875 14.71875 -11.113281 13.375 -10.5 C 12.039062 -9.882812 11.375 -9.066406 11.375 -8.046875 C 11.375 -6.390625 12.5 -5.5625 14.75 -5.5625 C 16.03125 -5.5625 17.160156 -5.90625 18.140625 -6.59375 C 19.117188 -7.289062 19.609375 -8.15625 19.609375 -9.1875 Z M 19.609375 -11.421875 "/></g></g></g><g fill="#000000" fill-opacity="1"><g transform="translate(70.869974, 66.14861)"><g><path d="M 9.921875 0 L 0 -26.203125 L 10.625 -26.203125 L 15.4375 -9.875 L 15.78125 -9.875 L 20.59375 -26.203125 L 30.328125 -26.203125 L 20.296875 0 Z M 9.921875 0 "/></g></g></g><g fill="#000000" fill-opacity="1"><g transform="translate(101.193234, 66.14861)"><g><path d="M 3.328125 -29.28125 L 3.328125 -35.984375 L 13.203125 -35.984375 L 13.203125 -29.28125 Z M 3.328125 0 L 3.328125 -26.203125 L 13.203125 -26.203125 L 13.203125 0 Z M 3.328125 0 "/></g></g></g><g fill="#000000" fill-opacity="1"><g transform="translate(117.719657, 66.14861)"><g><path d="M 22.046875 0 L 21.203125 -3.71875 C 19.273438 -0.84375 16.492188 0.59375 12.859375 0.59375 C 9.316406 0.59375 6.582031 -0.5625 4.65625 -2.875 C 2.738281 -5.195312 1.78125 -8.625 1.78125 -13.15625 C 1.78125 -17.65625 2.738281 -21.054688 4.65625 -23.359375 C 6.582031 -25.660156 9.316406 -26.8125 12.859375 -26.8125 C 15.867188 -26.8125 18.316406 -25.800781 20.203125 -23.78125 L 20.203125 -35.984375 L 30.078125 -35.984375 L 30.078125 0 Z M 15.9375 -19.515625 C 13.09375 -19.515625 11.671875 -17.804688 11.671875 -14.390625 L 11.671875 -11.765625 C 11.671875 -8.390625 13.09375 -6.703125 15.9375 -6.703125 C 17.394531 -6.703125 18.484375 -7.210938 19.203125 -8.234375 C 19.929688 -9.265625 20.296875 -10.609375 20.296875 -12.265625 L 20.296875 -13.90625 C 20.296875 -15.550781 19.929688 -16.894531 19.203125 -17.9375 C 18.484375 -18.988281 17.394531 -19.515625 15.9375 -19.515625 Z M 15.9375 -19.515625 "/></g></g></g><g fill="#000000" fill-opacity="1"><g transform="translate(150.822137, 66.14861)"><g/></g></g><g fill="#000000" fill-opacity="1"><g transform="translate(167.348561, 66.14861)"><g><path d="M 29.34375 0 L 24.921875 -20.796875 L 24.71875 -20.796875 L 20.296875 0 L 8.234375 0 L 0.25 -34.15625 L 11.671875 -34.15625 L 15.59375 -14.796875 L 15.78125 -14.796875 L 19.65625 -34.15625 L 30.484375 -34.15625 L 34.59375 -14.796875 L 34.796875 -14.796875 L 38.46875 -34.15625 L 49.390625 -34.15625 L 41.40625 0 Z M 29.34375 0 "/></g></g></g><g fill="#000000" fill-opacity="1"><g transform="translate(216.977476, 66.14861)"><g><path d="M 18.90625 -26.859375 C 19.675781 -26.859375 20.359375 -26.765625 20.953125 -26.578125 C 21.546875 -26.398438 21.84375 -26.296875 21.84375 -26.265625 L 21.84375 -17.96875 L 18.671875 -17.96875 C 16.617188 -17.96875 15.132812 -17.4375 14.21875 -16.375 C 13.3125 -15.320312 12.859375 -13.753906 12.859375 -11.671875 L 12.859375 0 L 2.984375 0 L 2.984375 -26.203125 L 11.0625 -26.203125 L 11.71875 -22.234375 C 12.3125 -23.753906 13.253906 -24.90625 14.546875 -25.6875 C 15.835938 -26.46875 17.289062 -26.859375 18.90625 -26.859375 Z M 18.90625 -26.859375 "/></g></g></g><g fill="#000000" fill-opacity="1"><g transform="translate(239.012707, 66.14861)"><g><path d="M 3.328125 -29.28125 L 3.328125 -35.984375 L 13.203125 -35.984375 L 13.203125 -29.28125 Z M 3.328125 0 L 3.328125 -26.203125 L 13.203125 -26.203125 L 13.203125 0 Z M 3.328125 0 "/></g></g></g><g fill="#000000" fill-opacity="1"><g transform="translate(255.539143, 66.14861)"><g><path d="M 20.453125 -26.203125 L 20.453125 -19.515625 L 14.890625 -19.515625 L 14.890625 -9.53125 C 14.890625 -8.34375 15.085938 -7.472656 15.484375 -6.921875 C 15.878906 -6.378906 16.609375 -6.109375 17.671875 -6.109375 L 20.453125 -6.109375 L 20.453125 -0.296875 C 19.660156 -0.0351562 18.632812 0.175781 17.375 0.34375 C 16.113281 0.507812 15.019531 0.59375 14.09375 0.59375 C 11.1875 0.59375 8.945312 0.0664062 7.375 -0.984375 C 5.800781 -2.046875 5.015625 -3.851562 5.015625 -6.40625 L 5.015625 -19.515625 L 1.34375 -19.515625 L 1.34375 -26.203125 L 5.40625 -26.203125 L 7.546875 -34.15625 L 14.890625 -34.15625 L 14.890625 -26.203125 Z M 20.453125 -26.203125 "/></g></g></g><g fill="#000000" fill-opacity="1"><g transform="translate(277.574374, 66.14861)"><g><path d="M 16.53125 -26.8125 C 21.332031 -26.8125 25 -25.6875 27.53125 -23.4375 C 30.0625 -21.1875 31.328125 -17.742188 31.328125 -13.109375 L 31.328125 -11.421875 L 11.671875 -11.421875 C 11.671875 -9.535156 12.09375 -8.109375 12.9375 -7.140625 C 13.78125 -6.179688 15.109375 -5.703125 16.921875 -5.703125 C 18.578125 -5.703125 19.796875 -6.050781 20.578125 -6.75 C 21.359375 -7.445312 21.75 -8.375 21.75 -9.53125 L 31.328125 -9.53125 C 31.328125 -6.351562 30.117188 -3.867188 27.703125 -2.078125 C 25.285156 -0.296875 21.757812 0.59375 17.125 0.59375 C 12.257812 0.59375 8.484375 -0.535156 5.796875 -2.796875 C 3.117188 -5.066406 1.78125 -8.503906 1.78125 -13.109375 C 1.78125 -17.609375 3.085938 -21.015625 5.703125 -23.328125 C 8.316406 -25.648438 11.925781 -26.8125 16.53125 -26.8125 Z M 16.921875 -20.5 C 13.816406 -20.5 12.082031 -19.023438 11.71875 -16.078125 L 21.34375 -16.078125 C 21.34375 -17.441406 20.953125 -18.519531 20.171875 -19.3125 C 19.398438 -20.101562 18.316406 -20.5 16.921875 -20.5 Z M 16.921875 -20.5 "/></g></g></g><g fill="#000000" fill-opacity="1"><g transform="translate(310.676842, 66.14861)"><g><path d="M 15.4375 -26.8125 C 18.945312 -26.8125 21.914062 -26.125 24.34375 -24.75 C 26.78125 -23.375 28 -21.242188 28 -18.359375 L 18.8125 -18.359375 C 18.8125 -19.328125 18.378906 -20.007812 17.515625 -20.40625 C 16.921875 -20.738281 16.179688 -20.90625 15.296875 -20.90625 C 12.910156 -20.90625 11.71875 -20.335938 11.71875 -19.203125 C 11.71875 -18.578125 12.128906 -18.128906 12.953125 -17.859375 C 13.785156 -17.597656 15.144531 -17.320312 17.03125 -17.03125 C 19.34375 -16.695312 21.273438 -16.304688 22.828125 -15.859375 C 24.390625 -15.410156 25.75 -14.613281 26.90625 -13.46875 C 28.0625 -12.332031 28.640625 -10.738281 28.640625 -8.6875 C 28.640625 -5.34375 27.390625 -2.957031 24.890625 -1.53125 C 22.390625 -0.113281 19.125 0.59375 15.09375 0.59375 C 12.769531 0.59375 10.582031 0.269531 8.53125 -0.375 C 6.476562 -1.019531 4.804688 -2.019531 3.515625 -3.375 C 2.234375 -4.726562 1.59375 -6.445312 1.59375 -8.53125 L 10.765625 -8.53125 L 10.765625 -8.34375 C 10.804688 -7.21875 11.28125 -6.429688 12.1875 -5.984375 C 13.09375 -5.535156 14.0625 -5.3125 15.09375 -5.3125 C 17.832031 -5.3125 19.203125 -5.957031 19.203125 -7.25 C 19.203125 -7.90625 18.769531 -8.382812 17.90625 -8.6875 C 17.050781 -8.988281 15.648438 -9.300781 13.703125 -9.625 C 11.347656 -10.019531 9.414062 -10.445312 7.90625 -10.90625 C 6.40625 -11.375 5.09375 -12.160156 3.96875 -13.265625 C 2.84375 -14.378906 2.28125 -15.929688 2.28125 -17.921875 C 2.28125 -21.128906 3.492188 -23.410156 5.921875 -24.765625 C 8.359375 -26.128906 11.53125 -26.8125 15.4375 -26.8125 Z M 15.4375 -26.8125 "/></g></g></g></svg>